/* XPM */
static char *_4014_15dce0e8e2647b2135355825bdc64d428929781059c1f2931f056fa1f17897ea[] = {
/* columns rows colors chars-per-pixel */
"64 64 236 2 ",
"   c #030101",
".  c #0C0A09",
"X  c #110B0D",
"o  c #141314",
"O  c #1D1D1D",
"+  c #1A1617",
"@  c #110F10",
"#  c #221A1A",
"$  c #26231E",
"%  c #1C1A22",
"&  c #120F20",
"*  c #231F23",
"=  c #232323",
"-  c #2B2B2B",
";  c #292727",
":  c #342D27",
">  c #38332D",
",  c #2B2A35",
"<  c #2A3637",
"1  c #343334",
"2  c #3B3533",
"3  c #3D3B36",
"4  c #39343B",
"5  c #3C3C3D",
"6  c #35363A",
"7  c #332F34",
"8  c #433D3C",
"9  c #443D35",
"0  c #41372D",
"q  c #3F413B",
"w  c #44423C",
"e  c #4B463C",
"r  c #51483E",
"t  c #3D3C43",
"y  c #3B3A48",
"u  c #343948",
"i  c #423D46",
"p  c #413E52",
"a  c #3C4349",
"s  c #384952",
"d  c #444444",
"f  c #4B4543",
"g  c #4D4C43",
"h  c #45444B",
"j  c #4B454C",
"k  c #4C4B4B",
"l  c #534C43",
"z  c #534C4B",
"x  c #554B49",
"c  c #535146",
"v  c #55554A",
"b  c #5B544B",
"n  c #5C5A4E",
"m  c #57574A",
"M  c #4D4B54",
"N  c #4C4A5B",
"B  c #474555",
"V  c #524C54",
"C  c #544D58",
"Z  c #4D5457",
"A  c #555353",
"S  c #5B5553",
"D  c #5D5C52",
"F  c #54545B",
"G  c #5C5B5B",
"H  c #595759",
"J  c #4E554C",
"K  c #615A4E",
"L  c #625D53",
"P  c #645D5B",
"I  c #665B5A",
"U  c #5A6059",
"Y  c #646156",
"T  c #65635B",
"R  c #6A645B",
"E  c #6D6A5D",
"W  c #6C6555",
"Q  c #726C5D",
"!  c #70665C",
"~  c #524D61",
"^  c #475862",
"/  c #5A5866",
"(  c #58576C",
")  c #635C63",
"_  c #635D6A",
"`  c #615E71",
"'  c #5A6669",
"]  c #5B6B74",
"[  c #5B6E75",
"{  c #646363",
"}  c #6A6463",
"|  c #6D6B63",
" . c #6C6B6B",
".. c #65666B",
"X. c #736C63",
"o. c #746D6A",
"O. c #756B64",
"+. c #69726C",
"@. c #7A756C",
"#. c #777369",
"$. c #6D6C7C",
"%. c #696875",
"&. c #726D78",
"*. c #697678",
"=. c #7B7573",
"-. c #7D7A73",
";. c #74737B",
":. c #777879",
">. c #827C74",
",. c #857D79",
"<. c #847A6C",
"1. c #79817B",
"2. c #8B857B",
"3. c #878379",
"4. c #938A7D",
"5. c #716E82",
"6. c #6A7A83",
"7. c #747383",
"8. c #7B7A84",
"9. c #7C7B8B",
"0. c #767788",
"q. c #7B7E92",
"w. c #6C6E82",
"e. c #837F88",
"r. c #837E92",
"t. c #788689",
"y. c #7D8493",
"u. c #6E8087",
"i. c #8D8983",
"p. c #8A8B8C",
"a. c #868689",
"s. c #938D84",
"d. c #978E88",
"f. c #9A9385",
"g. c #95928B",
"h. c #9B958C",
"j. c #989688",
"k. c #838494",
"l. c #8C8D94",
"z. c #878A99",
"x. c #8B9494",
"c. c #8E929B",
"v. c #8D9B9B",
"b. c #849695",
"n. c #939495",
"m. c #9C9692",
"M. c #9C9A94",
"N. c #93949B",
"B. c #959A9D",
"V. c #9A9B9D",
"C. c #9A9796",
"Z. c #908C97",
"A. c #A29A8C",
"S. c #A39D93",
"D. c #A39E9B",
"F. c #98A19F",
"G. c #A4A39C",
"H. c #AAA59C",
"J. c #ADA99D",
"K. c #A8A294",
"L. c #B2AA9C",
"P. c #8B8EA1",
"I. c #8D92A4",
"U. c #8E98A8",
"Y. c #9394A4",
"T. c #9B9EA1",
"R. c #9296AA",
"E. c #9399AC",
"W. c #989BA8",
"Q. c #9699B4",
"!. c #A39FA2",
"~. c #9DA1A4",
"^. c #98A6A8",
"/. c #99ABB4",
"(. c #A3A3A4",
"). c #AAA5A3",
"_. c #ADABA4",
"`. c #A3A5AA",
"'. c #AAA7AB",
"]. c #A4AAAC",
"[. c #AAAAAD",
"{. c #A1AEA7",
"}. c #B3ACA3",
"|. c #B5ADA7",
" X c #B3B2AB",
".X c #BBB5AB",
"XX c #B7B3A8",
"oX c #ACACB1",
"OX c #A7A8B3",
"+X c #ACB4B6",
"@X c #B3B3B4",
"#X c #BDBBB3",
"$X c #B4B5BA",
"%X c #B5B9BD",
"&X c #BBBABC",
"*X c #B9B6B6",
"=X c #B0B0B3",
"-X c #C2BDB3",
";X c #C2BDB9",
":X c #C4BAAE",
">X c #BCC1BB",
",X c #C5C1B5",
"<X c #C4C2BB",
"1X c #CAC6BA",
"2X c #D1CABC",
"3X c #BABEC2",
"4X c #C1BEC2",
"5X c #BBC4C5",
"6X c #CCCAC4",
"7X c #C7C8C8",
"8X c #D4CEC6",
"9X c #D4D2CC",
"0X c #DAD5CB",
"qX c #D6D3C6",
"wX c #C9CDD1",
"eX c #CCD3D5",
"rX c #D3D4D4",
"tX c #DDDAD4",
"yX c #DCDDDA",
"uX c #D6D8D6",
"iX c #CED1C9",
"pX c #E2DCD7",
"aX c #E1DBCF",
"sX c #D8E1DD",
"dX c #E4E2DC",
"fX c #EAE5DB",
"gX c #D9E5E5",
"hX c #ECEAE5",
"jX c #E9E8E5",
"kX c #F2EDE8",
"lX c #F7F4EC",
"zX c #FDFCF4",
"xX c #FEFEFC",
"cX c #F6F6F5",
"vX c #EAF1F2",
"bX c #D9DDE2",
/* pixels */
"/./.>Xy.^ < ^ [ ^ 1.t.1.b.j.{.{.OXOX9.%.A h H > #Xg.s.g.1XtXdXdXuXF.{.5X+Xv.F.5X5XcXsX1.^ :.C x b b K b n L n n n m c v v c e e ",
"/./.y.< < u.1.1.1.J J 1.b.b.{.b./ , h %.d G k jX9XG.G.i. XtX6X6XwX~.p.+X{.1.^.sXsXvXvX5X1.G } f x b K K K n K D n m c v v c e e ",
"/.u.u.1.[ u.t./.1.1.' 1.v.t.1.J , < t t j G 7XzXdX{.H.3.s.0X;X1X#X@X+.x.t.' +XeXgXeXvXxX5XP { S f l b K L n n L K m c m m J J e ",
"[ u.u.y.y.u.gX5X{.b.J [ 1.< O J / y M M 6 &XcXxX9X_.G.i.#.-X<X;XD.&X:...1.1.{.{.eXsXyXxXxXV.V I l l b K K n L Y L m c m m J e e ",
"^ u.[ u././.gXgXwXF.*.Z < q J s C / M h _ jXxXkX1X>XG.j.#.h.#X*Xa. Xi.J s +.b.j.sXjXuXhXxXpXC O.l l l K L K K Y Y n c m m J r r ",
"u.[ [ [ y.y.5XgXsX].u...J q q q y i h 5 &XxXkXfX#X,XG.S.=.=.}.*X3.G.G.+.J +.1.>XuXyXsXhXjXcX>.! b l l b L L n Y Y n J m m r J r ",
"[ s [ [ [ u.y./.5XvX%X' H ' s s 4 j . 4XxXvXcXcX#X XG.j.>.| g.#X2.g.XXj.1.1.M.>X7X6XpXhXpXzXm.8 I b r b Y L K Y Y n m J m c e J ",
"^ s s s [ [ u.u.^.bXcX5X;.' ' J ../ W.xXlXjXzXaX<XH._.s.>.P @.|.3.i._.L.j.M.J.>X8XuXpXfXkXzXA.: R b r b Y L L Y W n m m m c J r ",
"u.6.^ < s ' ] [ t.+XeXvXeX..i !.rX4XbXjXkXkX8X8X XS.h.d.>.K I ,.i.d.d.d.d.S.|.#X9X9X0X0XfXzX}.  W Y r K n n U Y Y n J m m m J c ",
"6.u.u.' s a B %.^ 0.OXuXvXeX3XuXxXcXkXwXrXjXkXaXS.h.g.d.<.I S I | ! I I I <.g.H.#X1X0XtXpXzXS.  E W r r n n E Y W Y n m m m J e ",
"u.6.y.t.^ s < s 6.^ +.OXbXcXxXxXcXcXpXdXjXpXpX;XM.h.4.<.} I I S I b l 9 8 x ) <.m.|.;X9X9XlXH.: <.X.m m n n Y Y Y Y n m m m c c ",
"y.6.u.y.u.*./ s M / l.eXcXxXxXxXxXjX4X9X0X4X4X4XS.g.e.<.o.o.O.O.I b f 9 0 0 9 l R -.i.H.).tX-X-.s.3.K n n r Y Y Y D m m m c c c ",
"U.t.t.t.u.t.7.*.s OXvXxXxXxXxXxXxXzXjX4X*X<XXX}.h.s.2.2.,.O.! I x x x i 0 > 0 i w z n | =._.#X{.H.j.Q L m m W W n n m m J m c c ",
"y.^.y.t.t.t.] %.3XcXxXvXcXxXlXxXjXtXdX9X<X;Xm.A.h.4.,.>.O.I x C x x x x 8 > 0 8 8 3 f k T 1.G._.,X}.2.#.W m Y W Y n m c m c m c ",
"t.t./.t.U.t.%.z.cXvXgXyXhXzXcXlXhX7X@X.X.X}.}.;X2.2.@.I b x x x S S I I i 0 2 i 8 2 g e G T a.D.,X.Xf.2.W m W Y W Y m m m m m m ",
"1.t.t.^.^.v.^.vXxXxXxXrX XsXzXjXcXpX|.D.D.}.8X1XE @.<.I x x x i x S }  .b 0 7 8 d 7 j i ' z 1.m.D.S.2.,.1.n E W W 1.1.Y D m m m ",
"+Xt.+.1.n. XsXxXlXxXzXhX#X>XiXkXsXfXpX}.d.|.fXf.} } I I C C j i i f V i 1 # h j p , B u F  .+.-.m.s.M.XX@.K K #.W Q Q Y m Y Y J ",
"vXhX>X1.M.tXlXtXsXzXkXjX>Xg.sXiX2X0X;X:XJ.hX8Xd.o.o.O.I z i 4 4 1 h % o O @ % B p , p p / %.' :.m.3.j.G.j.W r W W W W K J m D J ",
"zXzXlXqXtXzXzXlXaXqXlXaX<X3.iX1X#XK.J.G.pXzX:X,.o.o.I V 8 7 4 8 4 , O 5 ; % & = B 7 p ( ..%.Z ;.M.1.s.G.L.Q K W Q Q Q Y J m D J ",
"hXfXlXzXzXzXlXzXaXK.hX2X>Xs. XiX>Xf.h.H.lXpXC.o.) I M i i i i C N 7 ; t O + , % N N ( %./ F 5 T g.3.4.J..X<.K Q Q Q Q W m m n J ",
"0XiX2X2XaXaX0X2XaX4.2XaX>X4.j.,X:X|.e.pXhX;Xo._ ) V i 4 i V / / p V t - - @ % * y %.5.` M h 1 H g.3.-.S.J.4.K W 1.K W 1.m m U m ",
".XXXJ.J.}.:X:XXX2XL..XaX>X4.J.L.,.A.r.pX8Xe.) ) ) M 4 4 i C ~ ~ t p M t , o , % , w.r.( p 5 t } G.i.E 3.j.h.Q n W 1.W W D m n m ",
"A.j.f.K.S.A.A.L.K.XXK.,XL.4.2X.X<.<.;X4X'.I ) ) ) C p y p N N B N , u i & X u % & ` 5.~ y 4 V e.i.1.Y Y #.f.3.n K W 1.n U m m m ",
"S.j.<.<.2.f.4.<.4.4.K.4.A.L.2XqXr.A.pXpX<._ C _ ~ C B N ~ C N p y y y ..j u * & & ~ %.p i 7 P A.| E W e m @.2.Y W K W 1.Y m U J ",
"J.A.4.4.4.4.4.4.4.4.4.A.K.4.4.K.K.8XpX|.>.~ _ e._ _ ~ p ~ ( ( N ~ y B ` w./ u , & p ( ~ p i I ,.e X 8 K c Y M.E c c 1.Y Y J m m ",
"A.A.A.A.4.4.L.4.A.4.W <.K.A.4.4.8XpX8X).<.) e.r.` ( ~ ~ ( %.] ( ( ` w.q.z.9._ N p ~ ~ ~ C 8 b ! . b 9 R Y e X.2.m n n E 1.Y c n ",
"4.A.K.4.4.3.4.3.<.<.<.<.j.4.A.,XkXpX:Xr.<.~ &.r.5.( ~ ~ ( w.w.] 0.q.R.R.Y.z.9.8.r.5.p p C x x <.0 Q X.R c T ; 1.m E J E 1.W e n ",
"4.A.J.4.<.W K W K <.<.4.4.L.2XzXlX8XL.e._ ) ` e.r.5.( ( w.9.y.q.y.Q.Q.R.z.c.Y.c.r.r.~ 4 i i 9 I ! r E e =.T #X3.Y n U U 1.1.e m ",
"4.j.4.1.m r r r r <.<.4.L.2XlXzXfX:Xd.<.I >.r.e.r.5.5.5.5.r.U.E.Q.Q.Q.P.Y.W.W.Y.r.Y.5.4 0 0 : r #.9 r b S m.xX9Xx.q E n Q W r c ",
"4.1.W n c r r r 0 W 4.L.:XkXzXfX8X:X,.I C e.r.e.` 5.5.q.q.r.U.Q.Q.Q.Q.Q.W.Y.r.5.` e.e.i * $ : : ! W K I ; -.jXxXsXg J Y 1.Q r r ",
"1.1.m c r 0 e m W <.:XaXfXlXzXfX:XL.,.<.C <.r.e.` ` r.r.r.Q.Q.Q.Q.Q.Q.W.Y.k.%.~ ~ ~ &.p + # # : 0 2.O.K D   yXxXzX2.q D W 1.m e ",
"3.1.W n e : e Q 4.L.aXfXlXzXlXaXL.4.<.<.I } r.5.r.r.r.r.Q.Q.Q.Q.Q.Q.Q.R.P.9.( N p p &.C # X # $ 0 ,.O.<.v   V.xXzX7Xq n r 1.c 0 ",
"3.T v c k c m | D.7XhXxXxXcXfX8XS.S.#.I o.&.%.8.7.y.I.R.U.R.R.R.Q.W.Q.Y.r.e._ / _ _ &.) i X # 7 X ,.:X<.c   A lXzXjXJ k v | v 2 ",
") S S T G g +.n.8XdXkXcXcXlXpX0XJ.A.>.R P S / ;.9.P.R.U.R.R.R.U.W.Q.W.Y.r.e._ ~ j V I ) C ; # 0 9 K.:X<.> $   tXxXcXM.; J U U : ",
"T S k g e U g.iXjXhXkXkXkXkXpX8X|.2.E T { G / $.k.P.Q.U.R.U.U.R.Y.Y.Y.Z.r.5._ _ C C I ) } x # 0 @.:X;Xd.d L    XxXxXiX$ 1 w n 1 ",
"w x g 3 A s.>X6XrXjXhXkXhXjXpX0XL.>.R } { { ..$.k.I.Q.Q.U.Q.U.U.Y.Y.Y.P.e.&._ / ~ V V C C i X i A.;X-Xi.Y { : a.xXxXjX .O g w q ",
"3 w 8 2 G M.>X>X7XuXjXfXpXpXrX4XH.s.=.R k M ..;.k.P.Q.Q.E.E.U.U.P.I.I.P.r.5._ ~ N j j M V i + P }.<XXX| w w A T jXxXxXiX- n w q ",
"z w 3 3 v :.G.7X6XuXjXsXpXrX4X4XJ.d. .z k M ) $.z.Y.W.W.U.E.E.U.P.z.P.P.r.r.$._ M j C V j 8 7 ,.H.-X,X#.- e k z a.7XxXhXJ q e q ",
"8 3 d A U } p. XuXsXsXtX4XpX4X;X).a.S z { { / %.k.c.W.R.I.I.U.U.q.q.q.q.y.9.$.` p t j i 4 # t a.G.-X}.R g S d k 3 e.{.#Xp.1 J e ",
"4 2 4 3 k +.F.7XrXyXsXyXrXrX4X;XD.i.{ { :.{ A %.l.N.W.Y.I.I.P.P.P.q.0.7.7.$.` N h 4 i 4 , X S C..X;X@.3 T k v k G G 1 i.uXU U q ",
"3 2 q k F ;.{.7XrXbXbXbXrX4X4X:XC.a.:.=...H ) $.l.W.W.I.z.c.I.z.y.y.P.q.0.$.( F F F F z 8 - S D.#X#X=.: 3 3 z 1 2 V k = :.+.3 -.",
"5 h j h A a.=X5XwXrXwXbXbX4X4XoX!.a.:.&.%.) ..&.x.Y.N.c.c.I.I.z.P.y.P.q.q.7.;.%...F F { A 9 ) .X#XXXo.w : - 1 = .     @   +.#.G ",
"4 d h t / T.7X5XeXeXeXeXrX4X4XOXoXZ.;. .&. .+.:.n.c.c.Z.I.W.c.q.r.q.q.q.9.8.;.;. ...T { O.o.s..X<XS.T S # # O + - = * , . :.{ J ",
", 5 4 5 +.OX5X7XeXeXwXwX4X4X4X3XoXN.7.;.;.;.;.e.N.N.c.c.Y.W.c.q.q.q.0.w.7.7.;.;. .o.} o.s.S.S.L..X#.g v # @ o @   + o   + = . $ ",
"5 a 5 h :.].%X5XwXwX4X4X4X$X$X$XOXT.k.9.8.8.e.a.n.N.c.c.Y.c.z.k.k.q.0.7.;.&.;.:.=.} o.A.}.S.A.XXS.e 1 3 = . X X @ . O @ O o o - ",
"t t 6 H l.OX+X5X4X3X3X3X$X3X$X3XOXW.N.l.a.t.a.a.n.N.N.N.c.Z.z.k.k.r.8.7.$.&.&.;.,.i.S.}..XJ.L.:Xi.: : 2 > o + @ & o @ O @ = O . ",
"7 t 5 / Y.$X3X7X3X3X3XOX3X$X=X=XoXOXT.Z.z.a.a.a.n.n.N.N.c.z.z.l.9.9.8.;.&.&.&.=.e.|.:XK.L.2X:XL.X.$ - w 3 - % O % < = h w ..g - ",
", d h ' W.$X+X5X3XOX3X3X4X3X$XOX3XOXW.B.l.l.l.a.N.n.Z.N.c.l.k.l.9.8.9.8.:.:.>.>.h.).S.A.:X2X1XK.v $ $ w 1 4 + = = o = k q D U < ",
"1 , t *.oX3X+X3X$X%X&X3X$X@X=XOXoXOXW.Y.N.Z.l.a.N.N.Z.Z.V.N.k.k.e.e.,.,.,.,.=.#.K.A.4.A.L.2X,X2.2 O @ $ < ; O O o O = ; q g k < ",
"- < F a.+X$X=X&X$X&X3X&X$X=XoXoXOX`.`.!.W.N.l.k.N.N.l.Z.Y.Z.a.p.e.e.e.>.=.@.O.Q J.L.4.K.,X,XXXW O o O : - O O - O O O = < q d 1 ",
"- 6 ..B.+X@X*X*X$X$X%X$X$X=X|.OXOX`.`.`.T.N.Z.Z.N.N.l.l.N.Z.k.p.d.e.e.>.=.o.O.X.J.,X4.L.2X,XK.> @ o O - - o O = O O O ; 2 d d 6 ",
"< t *.~.].+X%X+X@X$X$X@X=X=X'.'.~.OXOX`.V.N.Z.Z.T.B.l.l.T.Z.p.l.Z.m.p.i.>.=.>.3.J.2X:XL.,X,X3.. O o o = - = O O O = O - q k a 3 ",
"< M a.].^.OX+XoXoX=X=X=XOX'.'.'.OXoX'.`.T.C.N.C.N.N.l.l.M.n.l.N.m.C.C.d.i.3.i.g.J.2XqX>X:X}.m   $ O o O ; ; O O $ = = - d k q a ",
"6 +.~.@X`.~.oXOX'.oXoXoX'.'.'.OXoX'.(.T.N.N.N.B.T.N.l.l.V.V.Z.T.!.).!.m.i.i.s.m.XX,X0X2X.X3.$ o O O O O O O = O O = = < k k q k ",
"Z t.].^.~.^.`.`.`.].OX[.'.`.'.oXOX`.`.!.T.T.T.Y.T.N.Z.Z.T.T.B.T.'.'.'.m.p.s.g.j.XX>X2X2XXXm @ $ + O O O O O O O + = = : h d 5 G ",
":.v.V.l.~.].(.~.~.`.`.'.`.'.OX'.`.!.T.W.~.~.T.T.N.N.l.Z.T.T.T.!.'.'.).m.g.s.h.K.L.1X<X2XK.e o $ $ O O O O ; = o + = O ; d t q G ",
"*.B.~.c.~.`.T.T.T.^.^.(.`.[.[.(.(.(.T.T.(.T.T.C.T.B.N.B.T.(.(.T.!.).'.m.m.m.S.m.H.<X1X#X X| O $ O O O O O O O O O = O = < 2 d ..",
"a.~.^.v.~.^.B.B.T.(.~.^.~.`.`.(.(.T.T.T.(.T.B.N.V.B.C.V.!.(.T.T.!.).).m.m.m.D.S.G.<X<X6X@X-.f O O O O O O O O = o O O = - 6 k  .",
"v.^.B.B.^.^.B.B.T.T.~.T.~.~.~.T.!.~.(.~.~.T.B.C.V.B.N.V.T.(.V.D.!.'.).D.m.V.).).G.#X>XiX_.=.{ O O O O O O O O O O O O = < 3 J  .",
"x.x.x.v.B.V.B.B.T.T.T.T.W.T.~.T.T.T.(.(.(.T.V.N.V.V.V.T.T.~.~.~.!.!.!.m.M.G._. X_.#X<X9X_.{ A 2 O O O O O O O O O = = = ; 5 A  .",
"x.p.b.x.x.x.v.^.B.T.B.B.~.V.T.~.!.~.(.(.!.V.C.N.V.V.V.V.T.~.~.V.(.).G.D.M.G. X#X_.#X6X7X_.o.6 1 O O O O O O O O = = = = - d G { ",
"x.b.x.v.p.b.B.T.B.B.B.~.~.^.T.T.V.T.(.(.T.T.V.C.V.V.V.T.D.~.~.(.(.(.(.G.G.(. X#X_.>X6X#X'.t.5 * O O O O O O O O O = = = 1 k G A ",
"x.t.p.b.p.v.~.B.v.v.B.~.~.~.B.~.T.(.(.(.T.V.B.V.C.B.V.V.D.~.).^.).(.H.(.G.(._.#X X,X6X&Xm. .k ; O = O O O O O O = O ; - 2 M A 6 ",
"t.:.t.t.a.^.^.c.x.x.N.~.^.~.B.T.T.(.(.(.T.V.V.V.N.C.B.!.~.~.`.).)._.{.(.G.G. X#X&X#X;XiX:.5 Z q O O O O O O O O = = ; 1 5 J d O "
};
